<?xml version="1.0" encoding="utf-8"?>
<svg viewBox="2597.28 340.81 240 360" xmlns="http://www.w3.org/2000/svg">
  <g transform="matrix(4, 0, 0, 4, 917.279541, -988.638672)" id="g6611">
    <rect width="50" height="80" rx="5" ry="5" x="425" y="337.36218" id="rect3757-2" style="fill:var(--uno-card-color);fill-opacity:1;fill-rule:evenodd;stroke:none"/>
    <path d="m 465,352.36215 c -22.09139,0 -40,17.90861 -40,40 0,5.52285 4.47715,10 10,10 22.09139,0 40,-17.90861 40,-40 0,-5.52285 -4.47715,-10 -10,-10 z" id="path3773-0-4-8-4-3" style="fill:#ffffff;fill-opacity:1;fill-rule:evenodd;stroke:none"/>
    <path d="m 441.5,362.36217 0,10 5,0 0,-5 10,0 -10,25 5,0 10,-25 0,-5 -15,0 -5,0 z" id="rect4014" style="fill:var(--uno-card-color);fill-opacity:1;fill-rule:evenodd;stroke:none"/>
    <path d="m 427.5,339.86217 0,5 2.5,0 0,-2.5 5,0 -5,12.5 2.5,0 5,-12.5 0,-2.5 -7.5,0 -2.5,0 z" id="rect4014-3" style="fill:#ffffff;fill-opacity:1;fill-rule:evenodd;stroke:none"/>
    <path d="m 472.5,414.86217 0,-5 -2.5,0 0,2.5 -5,0 5,-12.5 -2.5,0 -5,12.5 0,2.5 7.5,0 2.5,0 z" id="rect4014-3-3" style="fill:#ffffff;fill-opacity:1;fill-rule:evenodd;stroke:none"/>
  </g>
</svg>